<?xml version="1.0" encoding="UTF-8"?>
<svg width="700pt" height="700pt" version="1.1" viewBox="0 0 700 700" xmlns="http://www.w3.org/2000/svg">
 <g>
  <path d="m350 87.5c-106.14 0-192.5 86.363-192.5 192.5s86.363 192.5 192.5 192.5 192.5-86.363 192.5-192.5-86.363-192.5-192.5-192.5zm0 350c-86.852 0-157.5-70.664-157.5-157.5s70.648-157.5 157.5-157.5 157.5 70.664 157.5 157.5-70.648 157.5-157.5 157.5z"/>
  <path d="m350 247.22c-9.6758 0-17.5 7.8398-17.5 17.5v87.5c0 9.6602 7.8242 17.5 17.5 17.5s17.5-7.8398 17.5-17.5v-87.5c0-9.6602-7.8242-17.5-17.5-17.5z"/>
  <path d="m350 190.28c-9.6758 0-17.5 7.8398-17.5 17.5v5.25c0 9.6602 7.8242 17.5 17.5 17.5s17.5-7.8398 17.5-17.5v-5.25c0-9.6602-7.8242-17.5-17.5-17.5z"/>
 </g>
</svg>
